<mxfile host="app.diagrams.net" modified="2024-02-05T08:59:25.574Z" agent="Mozilla/5.0 (Macintosh; Intel Mac OS X 10_15_7) AppleWebKit/537.36 (KHTML, like Gecko) Chrome/121.0.0.0 Safari/537.36" etag="BCNwYjF_qA16NXm5I0zJ" version="21.7.2" type="github" pages="2">
  <diagram id="UFjr5D8nX8CWeSErPRjB" name="第 1 页">
    <mxGraphModel dx="1254" dy="670" grid="1" gridSize="10" guides="1" tooltips="1" connect="1" arrows="1" fold="1" page="1" pageScale="1" pageWidth="827" pageHeight="583" math="0" shadow="0">
      <root>
        <mxCell id="0" />
        <mxCell id="1" parent="0" />
        <mxCell id="fOOE3ZnmewSucdUrNxlC-1" value="游戏" style="rounded=0;whiteSpace=wrap;html=1;fillColor=#647687;strokeColor=#314354;fontColor=#ffffff;" parent="1" vertex="1">
          <mxGeometry x="120" y="120" width="120" height="60" as="geometry" />
        </mxCell>
        <mxCell id="fOOE3ZnmewSucdUrNxlC-2" value="&lt;table border=&quot;1&quot; width=&quot;100%&quot; cellpadding=&quot;4&quot; style=&quot;width: 100% ; height: 100% ; border-collapse: collapse&quot;&gt;&lt;tbody&gt;&lt;tr style=&quot;background-color: #a7c942 ; color: #ffffff ; border: 1px solid #98bf21&quot;&gt;&lt;th align=&quot;left&quot;&gt;&lt;/th&gt;&lt;th align=&quot;left&quot;&gt;我的游戏空间&lt;/th&gt;&lt;th align=&quot;left&quot;&gt;单个游戏&lt;/th&gt;&lt;/tr&gt;&lt;tr style=&quot;border: 1px solid #98bf21&quot;&gt;&lt;td&gt;定义&lt;/td&gt;&lt;td&gt;管理多个游戏图表数据，用于创建综合性看板&lt;/td&gt;&lt;td&gt;管理单个游戏&lt;/td&gt;&lt;/tr&gt;&lt;tr style=&quot;background-color: #eaf2d3 ; border: 1px solid #98bf21&quot;&gt;&lt;td&gt;顶部导航内容&lt;/td&gt;&lt;td&gt;数据看板、数据透视、行为分析、用户分群&lt;/td&gt;&lt;td&gt;&amp;nbsp;~ + 数据源、权限管理&lt;/td&gt;&lt;/tr&gt;&lt;tr style=&quot;border: 1px solid #98bf21&quot;&gt;&lt;td&gt;&lt;br&gt;&lt;/td&gt;&lt;td&gt;Value 8&lt;/td&gt;&lt;td&gt;Value 9&lt;/td&gt;&lt;/tr&gt;&lt;tr style=&quot;background-color: #eaf2d3 ; border: 1px solid #98bf21&quot;&gt;&lt;td&gt;Value 10&lt;/td&gt;&lt;td&gt;Value 11&lt;/td&gt;&lt;td&gt;Value 12&lt;/td&gt;&lt;/tr&gt;&lt;/tbody&gt;&lt;/table&gt;" style="text;html=1;strokeColor=#c0c0c0;fillColor=#ffffff;overflow=fill;rounded=0;" parent="1" vertex="1">
          <mxGeometry x="50" y="220" width="506" height="160" as="geometry" />
        </mxCell>
      </root>
    </mxGraphModel>
  </diagram>
  <diagram id="h6a42zIzRrJFiKIyOigt" name="第 2 页">
    <mxGraphModel dx="1352" dy="893" grid="1" gridSize="10" guides="1" tooltips="1" connect="1" arrows="1" fold="1" page="1" pageScale="1" pageWidth="827" pageHeight="1169" math="0" shadow="0">
      <root>
        <mxCell id="0" />
        <mxCell id="1" parent="0" />
        <mxCell id="hCrUyMNeQf5XTQwkRWOc-12" value="" style="group" vertex="1" connectable="0" parent="1">
          <mxGeometry x="74" y="185" width="662" height="192" as="geometry" />
        </mxCell>
        <mxCell id="hCrUyMNeQf5XTQwkRWOc-1" value="物理表" style="rounded=0;whiteSpace=wrap;html=1;fillColor=#647687;strokeColor=#314354;fontColor=#ffffff;" vertex="1" parent="hCrUyMNeQf5XTQwkRWOc-12">
          <mxGeometry x="268" y="62" width="120" height="60" as="geometry" />
        </mxCell>
        <mxCell id="hCrUyMNeQf5XTQwkRWOc-2" value="数据治理" style="text;html=1;strokeColor=none;fillColor=none;align=center;verticalAlign=middle;whiteSpace=wrap;rounded=0;fontSize=14;" vertex="1" parent="hCrUyMNeQf5XTQwkRWOc-12">
          <mxGeometry x="298" y="25" width="60" height="30" as="geometry" />
        </mxCell>
        <mxCell id="hCrUyMNeQf5XTQwkRWOc-3" value="普罗" style="text;html=1;strokeColor=none;fillColor=none;align=center;verticalAlign=middle;whiteSpace=wrap;rounded=0;fontSize=14;" vertex="1" parent="hCrUyMNeQf5XTQwkRWOc-12">
          <mxGeometry x="64" y="25" width="60" height="30" as="geometry" />
        </mxCell>
        <mxCell id="hCrUyMNeQf5XTQwkRWOc-4" value="BI" style="text;html=1;strokeColor=none;fillColor=none;align=center;verticalAlign=middle;whiteSpace=wrap;rounded=0;fontSize=14;" vertex="1" parent="hCrUyMNeQf5XTQwkRWOc-12">
          <mxGeometry x="538" y="25" width="60" height="30" as="geometry" />
        </mxCell>
        <mxCell id="hCrUyMNeQf5XTQwkRWOc-6" style="edgeStyle=orthogonalEdgeStyle;rounded=0;orthogonalLoop=1;jettySize=auto;html=1;exitX=1;exitY=0.5;exitDx=0;exitDy=0;entryX=0;entryY=0.5;entryDx=0;entryDy=0;" edge="1" parent="hCrUyMNeQf5XTQwkRWOc-12" source="hCrUyMNeQf5XTQwkRWOc-5" target="hCrUyMNeQf5XTQwkRWOc-1">
          <mxGeometry relative="1" as="geometry" />
        </mxCell>
        <mxCell id="hCrUyMNeQf5XTQwkRWOc-5" value="用户标签A" style="rounded=0;whiteSpace=wrap;html=1;fillColor=#f5f5f5;strokeColor=#666666;fontColor=#333333;" vertex="1" parent="hCrUyMNeQf5XTQwkRWOc-12">
          <mxGeometry x="38" y="62" width="120" height="60" as="geometry" />
        </mxCell>
        <mxCell id="hCrUyMNeQf5XTQwkRWOc-8" value="用户标签A&#39;" style="rounded=0;whiteSpace=wrap;html=1;fillColor=#f5f5f5;strokeColor=#666666;fontColor=#333333;" vertex="1" parent="hCrUyMNeQf5XTQwkRWOc-12">
          <mxGeometry x="508" y="62" width="120" height="60" as="geometry" />
        </mxCell>
        <mxCell id="hCrUyMNeQf5XTQwkRWOc-9" style="edgeStyle=orthogonalEdgeStyle;rounded=0;orthogonalLoop=1;jettySize=auto;html=1;exitX=1;exitY=0.5;exitDx=0;exitDy=0;entryX=0;entryY=0.5;entryDx=0;entryDy=0;" edge="1" parent="hCrUyMNeQf5XTQwkRWOc-12" source="hCrUyMNeQf5XTQwkRWOc-1" target="hCrUyMNeQf5XTQwkRWOc-8">
          <mxGeometry relative="1" as="geometry" />
        </mxCell>
        <mxCell id="hCrUyMNeQf5XTQwkRWOc-10" value="普罗创建的用户标签在治理上产生物理表" style="text;html=1;strokeColor=none;fillColor=none;align=center;verticalAlign=middle;whiteSpace=wrap;rounded=0;fontSize=10;" vertex="1" parent="hCrUyMNeQf5XTQwkRWOc-12">
          <mxGeometry x="148" y="131" width="130" height="30" as="geometry" />
        </mxCell>
        <mxCell id="hCrUyMNeQf5XTQwkRWOc-11" value="BI引用该部分表创建BI侧的用户标签" style="text;html=1;strokeColor=none;fillColor=none;align=center;verticalAlign=middle;whiteSpace=wrap;rounded=0;fontSize=10;" vertex="1" parent="hCrUyMNeQf5XTQwkRWOc-12">
          <mxGeometry x="383" y="131" width="130" height="30" as="geometry" />
        </mxCell>
      </root>
    </mxGraphModel>
  </diagram>
</mxfile>
